<svg id="visual" viewBox="0 0 600 900" width="600" height="900" xmlns="http://www.w3.org/2000/svg" xmlns:xlink="http://www.w3.org/1999/xlink" version="1.1"><path d="M0 64L12.5 59.5C25 55 50 46 75 47.5C100 49 125 61 150 65.5C175 70 200 67 225 64C250 61 275 58 300 53.5C325 49 350 43 375 43C400 43 425 49 450 55C475 61 500 67 525 64C550 61 575 49 587.5 43L600 37L600 0L587.5 0C575 0 550 0 525 0C500 0 475 0 450 0C425 0 400 0 375 0C350 0 325 0 300 0C275 0 250 0 225 0C200 0 175 0 150 0C125 0 100 0 75 0C50 0 25 0 12.5 0L0 0Z" fill="#6f74dd"></path><path d="M0 271L12.5 281.5C25 292 50 313 75 304C100 295 125 256 150 245.5C175 235 200 253 225 250C250 247 275 223 300 212.5C325 202 350 205 375 208C400 211 425 214 450 233.5C475 253 500 289 525 304C550 319 575 313 587.5 310L600 307L600 35L587.5 41C575 47 550 59 525 62C500 65 475 59 450 53C425 47 400 41 375 41C350 41 325 47 300 51.5C275 56 250 59 225 62C200 65 175 68 150 63.5C125 59 100 47 75 45.5C50 44 25 53 12.5 57.5L0 62Z" fill="#6669c3"></path><path d="M0 325L12.5 346C25 367 50 409 75 412C100 415 125 379 150 361C175 343 200 343 225 341.5C250 340 275 337 300 331C325 325 350 316 375 307C400 298 425 289 450 317.5C475 346 500 412 525 424C550 436 575 394 587.5 373L600 352L600 305L587.5 308C575 311 550 317 525 302C500 287 475 251 450 231.5C425 212 400 209 375 206C350 203 325 200 300 210.5C275 221 250 245 225 248C200 251 175 233 150 243.5C125 254 100 293 75 302C50 311 25 290 12.5 279.5L0 269Z" fill="#5d5eaa"></path><path d="M0 433L12.5 445C25 457 50 481 75 488.5C100 496 125 487 150 479.5C175 472 200 466 225 469C250 472 275 484 300 472C325 460 350 424 375 410.5C400 397 425 406 450 434.5C475 463 500 511 525 517C550 523 575 487 587.5 469L600 451L600 350L587.5 371C575 392 550 434 525 422C500 410 475 344 450 315.5C425 287 400 296 375 305C350 314 325 323 300 329C275 335 250 338 225 339.5C200 341 175 341 150 359C125 377 100 413 75 410C50 407 25 365 12.5 344L0 323Z" fill="#535391"></path><path d="M0 658L12.5 652C25 646 50 634 75 638.5C100 643 125 664 150 661C175 658 200 631 225 634C250 637 275 670 300 679C325 688 350 673 375 659.5C400 646 425 634 450 644.5C475 655 500 688 525 688C550 688 575 655 587.5 638.5L600 622L600 449L587.5 467C575 485 550 521 525 515C500 509 475 461 450 432.5C425 404 400 395 375 408.5C350 422 325 458 300 470C275 482 250 470 225 467C200 464 175 470 150 477.5C125 485 100 494 75 486.5C50 479 25 455 12.5 443L0 431Z" fill="#4a4979"></path><path d="M0 703L12.5 695.5C25 688 50 673 75 677.5C100 682 125 706 150 707.5C175 709 200 688 225 688C250 688 275 709 300 719.5C325 730 350 730 375 724C400 718 425 706 450 709C475 712 500 730 525 731.5C550 733 575 718 587.5 710.5L600 703L600 620L587.5 636.5C575 653 550 686 525 686C500 686 475 653 450 642.5C425 632 400 644 375 657.5C350 671 325 686 300 677C275 668 250 635 225 632C200 629 175 656 150 659C125 662 100 641 75 636.5C50 632 25 644 12.5 650L0 656Z" fill="#403f62"></path><path d="M0 766L12.5 760C25 754 50 742 75 743.5C100 745 125 760 150 763C175 766 200 757 225 760C250 763 275 778 300 790C325 802 350 811 375 808C400 805 425 790 450 782.5C475 775 500 775 525 769C550 763 575 751 587.5 745L600 739L600 701L587.5 708.5C575 716 550 731 525 729.5C500 728 475 710 450 707C425 704 400 716 375 722C350 728 325 728 300 717.5C275 707 250 686 225 686C200 686 175 707 150 705.5C125 704 100 680 75 675.5C50 671 25 686 12.5 693.5L0 701Z" fill="#37354c"></path><path d="M0 820L12.5 820C25 820 50 820 75 824.5C100 829 125 838 150 841C175 844 200 841 225 842.5C250 844 275 850 300 856C325 862 350 868 375 863.5C400 859 425 844 450 835C475 826 500 823 525 821.5C550 820 575 820 587.5 820L600 820L600 737L587.5 743C575 749 550 761 525 767C500 773 475 773 450 780.5C425 788 400 803 375 806C350 809 325 800 300 788C275 776 250 761 225 758C200 755 175 764 150 761C125 758 100 743 75 741.5C50 740 25 752 12.5 758L0 764Z" fill="#2c2b36"></path><path d="M0 901L12.5 901C25 901 50 901 75 901C100 901 125 901 150 901C175 901 200 901 225 901C250 901 275 901 300 901C325 901 350 901 375 901C400 901 425 901 450 901C475 901 500 901 525 901C550 901 575 901 587.5 901L600 901L600 818L587.5 818C575 818 550 818 525 819.5C500 821 475 824 450 833C425 842 400 857 375 861.5C350 866 325 860 300 854C275 848 250 842 225 840.5C200 839 175 842 150 839C125 836 100 827 75 822.5C50 818 25 818 12.5 818L0 818Z" fill="#222222"></path></svg>